<?xml version="1.0" encoding="UTF-8" standalone="no"?>
<!-- Created with Inkscape (http://www.inkscape.org/) -->

<svg
   xmlns:dc="http://purl.org/dc/elements/1.1/"
   xmlns:cc="http://creativecommons.org/ns#"
   xmlns:rdf="http://www.w3.org/1999/02/22-rdf-syntax-ns#"
   xmlns:svg="http://www.w3.org/2000/svg"
   xmlns="http://www.w3.org/2000/svg"
   xmlns:sodipodi="http://sodipodi.sourceforge.net/DTD/sodipodi-0.dtd"
   xmlns:inkscape="http://www.inkscape.org/namespaces/inkscape"
   width="72"
   height="72"
   viewBox="0 0 72.000002 72.000002"
   id="svg9323"
   version="1.1"
   inkscape:version="0.91 r13725"
   sodipodi:docname="cookcoolreheat2.svg">
  <defs
     id="defs9325" />
  <sodipodi:namedview
     id="base"
     pagecolor="#ffffff"
     bordercolor="#666666"
     borderopacity="1.0"
     inkscape:pageopacity="0.0"
     inkscape:pageshadow="2"
     inkscape:zoom="2.8"
     inkscape:cx="-1.8215364"
     inkscape:cy="5.7142854"
     inkscape:document-units="px"
     inkscape:current-layer="layer1"
     showgrid="false"
     units="px"
     inkscape:window-width="1920"
     inkscape:window-height="1000"
     inkscape:window-x="0"
     inkscape:window-y="27"
     inkscape:window-maximized="1" />
  <metadata
     id="metadata9328">
    <rdf:RDF>
      <cc:Work
         rdf:about="">
        <dc:format>image/svg+xml</dc:format>
        <dc:type
           rdf:resource="http://purl.org/dc/dcmitype/StillImage" />
        <dc:title></dc:title>
      </cc:Work>
    </rdf:RDF>
  </metadata>
  <g
     inkscape:label="Layer 1"
     inkscape:groupmode="layer"
     id="layer1"
     transform="translate(0,-980.36219)">
    <g
       id="g9967"
       transform="matrix(0.45385042,0,0,0.45385042,35.376311,537.352)">
      <path
         inkscape:connector-curvature="0"
         id="path4206"
         d="m 14.187362,1061.0622 c -9.0454906,-0.1649 -16.7595106,2.6085 -23.5019503,5.8027 -10.7879097,5.1106 -19.5967397,10.6237 -33.2226597,9.7383 -3.55615,-0.2311 -11.23204,-2.9417 -17.3418,-5.7403 -6.10976,-2.7986 -10.93945,-5.5117 -10.93945,-5.5117 l -5.5957,9.9473 c 0,0 5.19979,2.9267 11.78125,5.9414 6.58145,3.0146 14.2585,6.2908 21.35547,6.7519 17.08303,1.1101 28.85941,-6.0797 38.8495994,-10.8125 9.9902,-4.7327 17.6913906,-7.6828 31.9355506,-1.6054 l 1.07227,0.457 1.16601,0 0,-11.4141 2.24024,0.459 c -6.46513,-2.7584 -12.37154,-3.9148 -17.79883,-4.0136 z"
         style="color:#000000;font-style:normal;font-variant:normal;font-weight:normal;font-stretch:normal;font-size:medium;line-height:normal;font-family:sans-serif;text-indent:0;text-align:start;text-decoration:none;text-decoration-line:none;text-decoration-style:solid;text-decoration-color:#000000;letter-spacing:normal;word-spacing:normal;text-transform:none;direction:ltr;block-progression:tb;writing-mode:lr-tb;baseline-shift:baseline;text-anchor:start;white-space:normal;clip-rule:nonzero;display:inline;overflow:visible;visibility:visible;opacity:1;isolation:auto;mix-blend-mode:normal;color-interpolation:sRGB;color-interpolation-filters:linearRGB;solid-color:#000000;solid-opacity:1;fill:#000000;fill-opacity:1;fill-rule:evenodd;stroke:none;stroke-width:11.41398335;stroke-linecap:butt;stroke-linejoin:miter;stroke-miterlimit:4;stroke-dasharray:none;stroke-dashoffset:0;stroke-opacity:1;color-rendering:auto;image-rendering:auto;shape-rendering:auto;text-rendering:auto;enable-background:accumulate" />
      <path
         inkscape:connector-curvature="0"
         id="path4208"
         d="m 13.473076,1084.1866 c -9.0455003,-0.1648 -16.7595103,2.6086 -23.50195,5.8027 -10.78791,5.1107 -19.59674,10.6218 -33.22266,9.7364 -3.55616,-0.2311 -11.23204,-2.9397 -17.3418,-5.7383 -6.10976,-2.7986 -10.93945,-5.5117 -10.93945,-5.5117 l -5.5957,9.9472 c 0,0 5.1998,2.9268 11.78125,5.9414 6.58145,3.0147 14.25851,6.2908 21.35547,6.752 17.08303,1.11 28.85941,-6.0797 38.8495997,-10.8125 9.9902,-4.7328 17.6914003,-7.6828 31.9355503,-1.6055 l 1.07227,0.4571 1.16601,0 0,-11.4141 2.24024,0.459 c -6.46513,-2.7584 -12.37153,-3.9148 -17.79883,-4.0137 z"
         style="color:#000000;font-style:normal;font-variant:normal;font-weight:normal;font-stretch:normal;font-size:medium;line-height:normal;font-family:sans-serif;text-indent:0;text-align:start;text-decoration:none;text-decoration-line:none;text-decoration-style:solid;text-decoration-color:#000000;letter-spacing:normal;word-spacing:normal;text-transform:none;direction:ltr;block-progression:tb;writing-mode:lr-tb;baseline-shift:baseline;text-anchor:start;white-space:normal;clip-rule:nonzero;display:inline;overflow:visible;visibility:visible;opacity:1;isolation:auto;mix-blend-mode:normal;color-interpolation:sRGB;color-interpolation-filters:linearRGB;solid-color:#000000;solid-opacity:1;fill:#000000;fill-opacity:1;fill-rule:evenodd;stroke:none;stroke-width:11.41398335;stroke-linecap:butt;stroke-linejoin:miter;stroke-miterlimit:4;stroke-dasharray:none;stroke-dashoffset:0;stroke-opacity:1;color-rendering:auto;image-rendering:auto;shape-rendering:auto;text-rendering:auto;enable-background:accumulate" />
      <path
         inkscape:connector-curvature="0"
         id="path4210"
         d="m 14.187362,1106.5948 c -9.0455006,-0.1648 -16.7595106,2.6105 -23.5019503,5.8047 -10.7879097,5.1107 -19.5967397,10.6217 -33.2226597,9.7363 -3.55616,-0.2311 -11.23204,-2.9397 -17.3418,-5.7383 -6.10976,-2.7985 -10.93945,-5.5136 -10.93945,-5.5136 l -5.5957,9.9492 c 0,0 5.1998,2.9267 11.78125,5.9414 6.58145,3.0147 14.25851,6.2908 21.35547,6.752 17.08304,1.11 28.85941,-6.0798 38.8495994,-10.8125 9.9902,-4.7328 17.6914006,-7.6829 31.9355506,-1.6055 l 1.07227,0.457 1.16601,0 0,-11.414 2.24024,0.4589 c -6.46513,-2.7583 -12.37153,-3.9167 -17.79883,-4.0156 z"
         style="color:#000000;font-style:normal;font-variant:normal;font-weight:normal;font-stretch:normal;font-size:medium;line-height:normal;font-family:sans-serif;text-indent:0;text-align:start;text-decoration:none;text-decoration-line:none;text-decoration-style:solid;text-decoration-color:#000000;letter-spacing:normal;word-spacing:normal;text-transform:none;direction:ltr;block-progression:tb;writing-mode:lr-tb;baseline-shift:baseline;text-anchor:start;white-space:normal;clip-rule:nonzero;display:inline;overflow:visible;visibility:visible;opacity:1;isolation:auto;mix-blend-mode:normal;color-interpolation:sRGB;color-interpolation-filters:linearRGB;solid-color:#000000;solid-opacity:1;fill:#000000;fill-opacity:1;fill-rule:evenodd;stroke:none;stroke-width:11.41398335;stroke-linecap:butt;stroke-linejoin:miter;stroke-miterlimit:4;stroke-dasharray:none;stroke-dashoffset:0;stroke-opacity:1;color-rendering:auto;image-rendering:auto;shape-rendering:auto;text-rendering:auto;enable-background:accumulate" />
    </g>
    <path
       style="color:#000000;font-style:normal;font-variant:normal;font-weight:normal;font-stretch:normal;font-size:medium;line-height:normal;font-family:sans-serif;text-indent:0;text-align:start;text-decoration:none;text-decoration-line:none;text-decoration-style:solid;text-decoration-color:#000000;letter-spacing:normal;word-spacing:normal;text-transform:none;direction:ltr;block-progression:tb;writing-mode:lr-tb;baseline-shift:baseline;text-anchor:start;white-space:normal;clip-rule:nonzero;display:inline;overflow:visible;visibility:visible;opacity:1;isolation:auto;mix-blend-mode:normal;color-interpolation:sRGB;color-interpolation-filters:linearRGB;solid-color:#000000;solid-opacity:1;fill:#000000;fill-opacity:1;fill-rule:evenodd;stroke:none;stroke-width:8.96812916;stroke-linecap:butt;stroke-linejoin:miter;stroke-miterlimit:4;stroke-dasharray:none;stroke-dashoffset:0;stroke-opacity:1;color-rendering:auto;image-rendering:auto;shape-rendering:auto;text-rendering:auto;enable-background:accumulate"
       d="m 57.036129,980.19115 -3.745267,6.37161 -3.367419,-5.94187 -5.315229,3.01352 5.275311,9.3053 0,3.0481 -3.056089,0 -10.034395,-5.79286 -3.054761,5.28994 6.160074,3.55768 -6.160074,3.55633 3.054761,5.2913 10.034395,-5.7929 3.056089,0 0,2.9497 -5.42166,9.5634 5.315223,3.0135 3.367418,-5.9405 3.745274,6.3702 5.267327,-3.096 -6.161403,-10.4814 -0.0027,0 0,-2.3802 3.233044,0 9.61397,5.5494 3.054758,-5.29 -6.161404,-3.55763 6.161404,-3.55635 -3.054758,-5.29128 -10.457486,6.03635 -2.389528,0 0,-2.3057 0.147684,0.0865 6.162738,-10.48143 -5.267334,-3.09601 z"
       id="path9972"
       inkscape:connector-curvature="0" />
  </g>
</svg>
