<?xml version="1.0" encoding="UTF-8" standalone="no"?>
<!-- Created with Inkscape (http://www.inkscape.org/) -->

<svg
   xmlns:dc="http://purl.org/dc/elements/1.1/"
   xmlns:cc="http://creativecommons.org/ns#"
   xmlns:rdf="http://www.w3.org/1999/02/22-rdf-syntax-ns#"
   xmlns:svg="http://www.w3.org/2000/svg"
   xmlns="http://www.w3.org/2000/svg"
   xmlns:sodipodi="http://sodipodi.sourceforge.net/DTD/sodipodi-0.dtd"
   xmlns:inkscape="http://www.inkscape.org/namespaces/inkscape"
   width="72"
   height="72"
   viewBox="0 0 72.000002 72.000002"
   id="svg9323"
   version="1.1"
   inkscape:version="0.91 r13725"
   sodipodi:docname="cup.svg">
  <defs
     id="defs9325" />
  <sodipodi:namedview
     id="base"
     pagecolor="#ffffff"
     bordercolor="#666666"
     borderopacity="1.0"
     inkscape:pageopacity="0.0"
     inkscape:pageshadow="2"
     inkscape:zoom="2.8"
     inkscape:cx="-1.8215364"
     inkscape:cy="-0.86594509"
     inkscape:document-units="px"
     inkscape:current-layer="layer1"
     showgrid="false"
     units="px"
     inkscape:window-width="1920"
     inkscape:window-height="1000"
     inkscape:window-x="0"
     inkscape:window-y="27"
     inkscape:window-maximized="1" />
  <metadata
     id="metadata9328">
    <rdf:RDF>
      <cc:Work
         rdf:about="">
        <dc:format>image/svg+xml</dc:format>
        <dc:type
           rdf:resource="http://purl.org/dc/dcmitype/StillImage" />
        <dc:title></dc:title>
      </cc:Work>
    </rdf:RDF>
  </metadata>
  <g
     inkscape:label="Layer 1"
     inkscape:groupmode="layer"
     id="layer1"
     transform="translate(0,-980.36219)">
    <g
       id="g6629"
       transform="matrix(0.54358285,0,0,0.54358285,238.63168,771.8465)">
      <path
         d="m -336.07227,414.85938 a 4.9418436,4.9418436 0 0 0 -4.9414,4.9414 l 0,10.85742 c 0,7.72625 -1.91541,14.90146 -5.22266,21.05078 a 4.9418436,4.9418436 0 0 0 4.35156,7.28125 l 13.62696,0 c 8.71263,0 15.48633,-7.58278 15.48633,-16.35742 l 0,-11.41601 c 0,-8.77464 -6.77371,-16.35743 -15.48633,-16.35742 l -7.81446,0 z m 4.94141,9.88281 2.87305,0 c 2.97097,0 5.60351,2.60068 5.60351,6.47461 l 0,11.41601 c 0,3.87393 -2.63254,6.47461 -5.60351,6.47461 l -6.11524,0 c 2.05398,-5.74009 3.24219,-11.9416 3.24219,-18.44922 l 0,-5.91601 z m -89.14487,-10.69962 0,15.30218 c 0,25.71625 19.1237,46.41922 42.8783,46.41922 23.7546,0 42.8783,-20.70297 42.8783,-46.41922 l 0,-15.30218 -85.7566,0 z"
         style="color:#000000;font-style:normal;font-variant:normal;font-weight:normal;font-stretch:normal;font-size:medium;line-height:normal;font-family:sans-serif;text-indent:0;text-align:start;text-decoration:none;text-decoration-line:none;text-decoration-style:solid;text-decoration-color:#000000;letter-spacing:normal;word-spacing:normal;text-transform:none;direction:ltr;block-progression:tb;writing-mode:lr-tb;baseline-shift:baseline;text-anchor:start;white-space:normal;clip-rule:nonzero;display:inline;overflow:visible;visibility:visible;opacity:1;isolation:auto;mix-blend-mode:normal;color-interpolation:sRGB;color-interpolation-filters:linearRGB;solid-color:#000000;solid-opacity:1;fill:#000000;fill-opacity:1;fill-rule:nonzero;stroke:none;stroke-width:9.88269901;stroke-linecap:round;stroke-linejoin:round;stroke-miterlimit:4;stroke-dasharray:none;stroke-dashoffset:0;stroke-opacity:1;color-rendering:auto;image-rendering:auto;shape-rendering:auto;text-rendering:auto;enable-background:accumulate"
         id="path6595"
         inkscape:connector-curvature="0" />
      <g
         transform="matrix(0.60921382,0,0,0.40952339,-463.05287,392.60709)"
         id="g6597">
        <path
           inkscape:connector-curvature="0"
           id="rect6599"
           d="m 70,212.26312 160,0 c 5.54,0 10,6.03255 10,13.5259 l 0,12.9482 c 0,7.49335 -4.46,13.5259 -10,13.5259 l -160,0 c -5.54,0 -10,-6.03255 -10,-13.5259 l 0,-12.9482 c 0,-7.49335 4.46,-13.5259 10,-13.5259 z"
           style="opacity:1;fill:#000000;fill-opacity:1;stroke:none;stroke-width:18.01499939;stroke-linecap:round;stroke-linejoin:round;stroke-miterlimit:4;stroke-dasharray:none;stroke-opacity:1" />
        <path
           inkscape:connector-curvature="0"
           id="path6601"
           d="m 69.999999,222.3622 -46.160252,6.65063 17.320507,-43.30127 z"
           inkscape:transform-center-y="6.3284924"
           inkscape:transform-center-x="3.4270252"
           style="opacity:1;fill:#000000;fill-opacity:1;stroke:none;stroke-width:18.01499939;stroke-linecap:round;stroke-linejoin:round;stroke-miterlimit:4;stroke-dasharray:none;stroke-opacity:1"
           transform="matrix(0.35474982,0.86871407,-0.86871407,0.35474982,232.96194,110.62548)" />
        <path
           inkscape:connector-curvature="0"
           id="path6603"
           d="m 69.999999,222.3622 -46.160252,6.65063 17.320507,-43.30127 z"
           inkscape:transform-center-y="6.3284924"
           inkscape:transform-center-x="-3.4270246"
           style="opacity:1;fill:#000000;fill-opacity:1;stroke:none;stroke-width:18.01499939;stroke-linecap:round;stroke-linejoin:round;stroke-miterlimit:4;stroke-dasharray:none;stroke-opacity:1"
           transform="matrix(-0.35474982,0.86871407,0.86871407,0.35474982,66.815189,110.62548)" />
      </g>
    </g>
  </g>
</svg>
