<?xml version="1.0" encoding="UTF-8" standalone="no"?>
<!-- Created with Inkscape (http://www.inkscape.org/) -->

<svg
   xmlns:dc="http://purl.org/dc/elements/1.1/"
   xmlns:cc="http://creativecommons.org/ns#"
   xmlns:rdf="http://www.w3.org/1999/02/22-rdf-syntax-ns#"
   xmlns:svg="http://www.w3.org/2000/svg"
   xmlns="http://www.w3.org/2000/svg"
   xmlns:sodipodi="http://sodipodi.sourceforge.net/DTD/sodipodi-0.dtd"
   xmlns:inkscape="http://www.inkscape.org/namespaces/inkscape"
   width="72"
   height="72"
   viewBox="0 0 72.000002 72.000002"
   id="svg9323"
   version="1.1"
   inkscape:version="0.91 r13725"
   sodipodi:docname="cup_hot.svg">
  <defs
     id="defs9325" />
  <sodipodi:namedview
     id="base"
     pagecolor="#ffffff"
     bordercolor="#666666"
     borderopacity="1.0"
     inkscape:pageopacity="0.0"
     inkscape:pageshadow="2"
     inkscape:zoom="2.8"
     inkscape:cx="-55.928679"
     inkscape:cy="-0.86594509"
     inkscape:document-units="px"
     inkscape:current-layer="layer1"
     showgrid="false"
     units="px"
     inkscape:window-width="1920"
     inkscape:window-height="1000"
     inkscape:window-x="0"
     inkscape:window-y="27"
     inkscape:window-maximized="1" />
  <metadata
     id="metadata9328">
    <rdf:RDF>
      <cc:Work
         rdf:about="">
        <dc:format>image/svg+xml</dc:format>
        <dc:type
           rdf:resource="http://purl.org/dc/dcmitype/StillImage" />
        <dc:title />
      </cc:Work>
    </rdf:RDF>
  </metadata>
  <g
     inkscape:label="Layer 1"
     inkscape:groupmode="layer"
     id="layer1"
     transform="translate(0,-980.36219)">
    <g
       id="g13341">
      <path
         id="path6595"
         transform="translate(0,980.36219)"
         d="M 10.177734 24.765625 L 10.177734 33.083984 C 10.177734 47.062884 20.571782 58.316406 33.484375 58.316406 C 40.838869 58.316406 47.372959 54.661176 51.638672 48.935547 A 2.6863014 2.6863014 0 0 0 52.789062 49.197266 L 60.197266 49.197266 C 64.933302 49.197266 68.615234 45.076341 68.615234 40.306641 L 68.615234 34.101562 C 68.615234 29.331863 64.933297 25.208984 60.197266 25.208984 L 56.792969 25.208984 L 56.792969 24.765625 L 10.177734 24.765625 z M 58.634766 30.582031 L 60.197266 30.582031 C 61.812234 30.582031 63.242188 31.995762 63.242188 34.101562 L 63.242188 40.306641 C 63.242188 42.412441 61.812234 43.826172 60.197266 43.826172 L 56.873047 43.826172 C 57.989555 40.705972 58.634766 37.334275 58.634766 33.796875 L 58.634766 30.582031 z "
         style="color:#000000;font-style:normal;font-variant:normal;font-weight:normal;font-stretch:normal;font-size:medium;line-height:normal;font-family:sans-serif;text-indent:0;text-align:start;text-decoration:none;text-decoration-line:none;text-decoration-style:solid;text-decoration-color:#000000;letter-spacing:normal;word-spacing:normal;text-transform:none;direction:ltr;block-progression:tb;writing-mode:lr-tb;baseline-shift:baseline;text-anchor:start;white-space:normal;clip-rule:nonzero;display:inline;overflow:visible;visibility:visible;opacity:1;isolation:auto;mix-blend-mode:normal;color-interpolation:sRGB;color-interpolation-filters:linearRGB;solid-color:#000000;solid-opacity:1;fill:#000000;fill-opacity:1;fill-rule:nonzero;stroke:none;stroke-width:9.88269901;stroke-linecap:round;stroke-linejoin:round;stroke-miterlimit:4;stroke-dasharray:none;stroke-dashoffset:0;stroke-opacity:1;color-rendering:auto;image-rendering:auto;shape-rendering:auto;text-rendering:auto;enable-background:accumulate" />
      <g
         transform="matrix(0.33115818,0,0,0.22260989,-13.075919,993.47527)"
         id="g6597">
        <path
           inkscape:connector-curvature="0"
           id="rect6599"
           d="m 70,212.26312 160,0 c 5.54,0 10,6.03255 10,13.5259 l 0,12.9482 c 0,7.49335 -4.46,13.5259 -10,13.5259 l -160,0 c -5.54,0 -10,-6.03255 -10,-13.5259 l 0,-12.9482 c 0,-7.49335 4.46,-13.5259 10,-13.5259 z"
           style="opacity:1;fill:#000000;fill-opacity:1;stroke:none;stroke-width:18.01499939;stroke-linecap:round;stroke-linejoin:round;stroke-miterlimit:4;stroke-dasharray:none;stroke-opacity:1" />
        <path
           inkscape:connector-curvature="0"
           id="path6601"
           d="m 69.999999,222.3622 -46.160252,6.65063 17.320507,-43.30127 z"
           inkscape:transform-center-y="6.3284924"
           inkscape:transform-center-x="3.4270252"
           style="opacity:1;fill:#000000;fill-opacity:1;stroke:none;stroke-width:18.01499939;stroke-linecap:round;stroke-linejoin:round;stroke-miterlimit:4;stroke-dasharray:none;stroke-opacity:1"
           transform="matrix(0.35474982,0.86871407,-0.86871407,0.35474982,232.96194,110.62548)" />
        <path
           inkscape:connector-curvature="0"
           id="path6603"
           d="m 69.999999,222.3622 -46.160252,6.65063 17.320507,-43.30127 z"
           inkscape:transform-center-y="6.3284924"
           inkscape:transform-center-x="-3.4270246"
           style="opacity:1;fill:#000000;fill-opacity:1;stroke:none;stroke-width:18.01499939;stroke-linecap:round;stroke-linejoin:round;stroke-miterlimit:4;stroke-dasharray:none;stroke-opacity:1"
           transform="matrix(-0.35474982,0.86871407,0.86871407,0.35474982,66.815189,110.62548)" />
      </g>
      <path
         sodipodi:nodetypes="csscssc"
         inkscape:connector-curvature="0"
         id="path4765"
         d="m 27.991928,998.36081 c 0,0 5.07497,-3.1966 4.8925,-4.9845 -0.22735,-2.2272 -7.6786,-3.7566 -7.33871,-5.9814 0.18266,-1.1958 4.89246,-2.9907 4.89246,-2.9907 0,0 -2.78849,1.9492 -2.44625,2.9907 0.78048,2.375 10.03989,3.5874 9.78495,5.9814 -0.22636,2.1257 -9.78495,4.9845 -9.78495,4.9845 z"
         style="fill:#000000;fill-rule:evenodd;stroke:none;stroke-width:1px;stroke-linecap:butt;stroke-linejoin:miter;stroke-opacity:1" />
      <path
         inkscape:connector-curvature="0"
         id="path4767"
         d="M 27.991928,998.36081 Z"
         style="fill:none;fill-rule:evenodd;stroke:#000000;stroke-width:0.24462348px;stroke-linecap:butt;stroke-linejoin:miter;stroke-opacity:1" />
      <path
         style="fill:#000000;fill-rule:evenodd;stroke:none;stroke-width:1px;stroke-linecap:butt;stroke-linejoin:miter;stroke-opacity:1"
         d="m 38.246868,998.36081 c 0,0 5.07497,-3.2386 4.8925,-5.05 -0.22735,-2.2565 -7.6786,-3.806 -7.33871,-6.0601 0.18266,-1.2115 4.89246,-3.03 4.89246,-3.03 0,0 -2.78848,1.9748 -2.44625,3.03 0.78048,2.4063 10.03989,3.6346 9.78496,6.0601 -0.22637,2.1537 -9.78496,5.05 -9.78496,5.05 z"
         id="path4769"
         inkscape:connector-curvature="0"
         sodipodi:nodetypes="csscssc" />
    </g>
  </g>
</svg>
