<?xml version="1.0" encoding="UTF-8" standalone="no"?>
<!-- Created with Inkscape (http://www.inkscape.org/) -->

<svg
   xmlns:dc="http://purl.org/dc/elements/1.1/"
   xmlns:cc="http://creativecommons.org/ns#"
   xmlns:rdf="http://www.w3.org/1999/02/22-rdf-syntax-ns#"
   xmlns:svg="http://www.w3.org/2000/svg"
   xmlns="http://www.w3.org/2000/svg"
   xmlns:sodipodi="http://sodipodi.sourceforge.net/DTD/sodipodi-0.dtd"
   xmlns:inkscape="http://www.inkscape.org/namespaces/inkscape"
   width="72"
   height="72"
   viewBox="0 0 72.000002 72.000002"
   id="svg9323"
   version="1.1"
   inkscape:version="0.91 r13725"
   sodipodi:docname="frying.svg">
  <defs
     id="defs9325" />
  <sodipodi:namedview
     id="base"
     pagecolor="#ffffff"
     bordercolor="#666666"
     borderopacity="1.0"
     inkscape:pageopacity="0.0"
     inkscape:pageshadow="2"
     inkscape:zoom="2.8"
     inkscape:cx="-76.35129"
     inkscape:cy="-0.86594509"
     inkscape:document-units="px"
     inkscape:current-layer="layer1"
     showgrid="false"
     units="px"
     inkscape:window-width="1920"
     inkscape:window-height="1000"
     inkscape:window-x="0"
     inkscape:window-y="27"
     inkscape:window-maximized="1" />
  <metadata
     id="metadata9328">
    <rdf:RDF>
      <cc:Work
         rdf:about="">
        <dc:format>image/svg+xml</dc:format>
        <dc:type
           rdf:resource="http://purl.org/dc/dcmitype/StillImage" />
        <dc:title></dc:title>
      </cc:Work>
    </rdf:RDF>
  </metadata>
  <g
     inkscape:label="Layer 1"
     inkscape:groupmode="layer"
     id="layer1"
     transform="translate(0,-980.36219)">
    <g
       id="g12091">
      <path
         inkscape:connector-curvature="0"
         id="rect4648"
         d="m 50.306213,1025.3463 c -1.626624,0 -2.970443,0.6408 -3.256642,1.4912 -0.08599,-0.014 -0.172238,-0.028 -0.260792,-0.028 l -35.510118,0 -4.0097109,0 c -0.1091307,0 -0.2154961,0.014 -0.3208082,0.034 l -6.47827285,0.051 4.49342195,8.2873 c 0.182953,0.7031 0.5088099,1.301 0.9288357,1.7134 l 0.049298,0.091 0.016435,-0.032 c 0.3798627,0.3482 0.8279862,0.5522 1.3110899,0.5522 l 39.5198294,0 c 1.10501,0 2.035356,-1.0521 2.352817,-2.5122 l 3.247353,-5.9888 16.801932,0 c 1.836374,0 3.315232,-0.8157 3.315232,-1.829 0,-1.0134 -1.478858,-1.8291 -3.315232,-1.8291 l -18.884668,0 z"
         style="opacity:1;fill:#000000;fill-opacity:1;stroke:none;stroke-width:18.01499939;stroke-linecap:round;stroke-linejoin:round;stroke-miterlimit:4;stroke-dasharray:none;stroke-opacity:1" />
      <path
         inkscape:connector-curvature="0"
         id="path4659"
         d="m 12.85018,1040.105 -2.215531,2.9996 -2.2892694,0 0,1.3792 38.8114664,0 0,-1.3792 -3.045932,0 -2.215531,-2.9996 -2.215535,2.9996 -0.410029,0 -2.215535,-2.9996 -2.214843,2.9996 -0.410717,0 -2.214847,-2.9996 -2.215532,2.9996 -0.410028,0 -2.215535,-2.9996 -2.215536,2.9996 -0.410025,0 -2.215534,-2.9996 -2.215536,2.9996 -0.410029,0 -2.215531,-2.9996 -2.215535,2.9996 -0.41003,0 -2.214846,-2.9996 z"
         style="opacity:1;fill:#000000;fill-opacity:1;stroke:none;stroke-width:18.01499939;stroke-linecap:round;stroke-linejoin:round;stroke-miterlimit:4;stroke-dasharray:none;stroke-opacity:1" />
      <path
         sodipodi:nodetypes="csscssc"
         inkscape:connector-curvature="0"
         id="path4765"
         d="m 21.563355,1019.7893 c 0,0 5.07497,-3.1965 4.8925,-4.9845 -0.22735,-2.2272 -7.6786,-3.7566 -7.33871,-5.9814 0.18266,-1.1958 4.89246,-2.9907 4.89246,-2.9907 0,0 -2.78848,1.9492 -2.44625,2.9907 0.78048,2.3751 10.03989,3.5874 9.78496,5.9814 -0.22637,2.1258 -9.78496,4.9845 -9.78496,4.9845 z"
         style="fill:#000000;fill-rule:evenodd;stroke:none;stroke-width:1px;stroke-linecap:butt;stroke-linejoin:miter;stroke-opacity:1" />
      <path
         inkscape:connector-curvature="0"
         id="path4767"
         d="M 19.456917,1026.575 Z"
         style="fill:none;fill-rule:evenodd;stroke:#000000;stroke-width:0.08948781px;stroke-linecap:butt;stroke-linejoin:miter;stroke-opacity:1" />
      <path
         style="fill:#000000;fill-rule:evenodd;stroke:none;stroke-width:1px;stroke-linecap:butt;stroke-linejoin:miter;stroke-opacity:1"
         d="m 32.175438,1019.4322 c 0,0 5.07497,-3.2386 4.8925,-5.05 -0.22735,-2.2565 -7.6786,-3.8059 -7.33871,-6.06 0.18266,-1.2115 4.89246,-3.03 4.89246,-3.03 0,0 -2.78848,1.9748 -2.44625,3.03 0.78048,2.4062 10.03989,3.6345 9.78496,6.06 -0.22637,2.1537 -9.78496,5.05 -9.78496,5.05 z"
         id="path4769"
         inkscape:connector-curvature="0"
         sodipodi:nodetypes="csscssc" />
    </g>
  </g>
</svg>
