<?xml version="1.0" encoding="UTF-8" standalone="no"?>
<!-- Created with Inkscape (http://www.inkscape.org/) -->

<svg
   xmlns:dc="http://purl.org/dc/elements/1.1/"
   xmlns:cc="http://creativecommons.org/ns#"
   xmlns:rdf="http://www.w3.org/1999/02/22-rdf-syntax-ns#"
   xmlns:svg="http://www.w3.org/2000/svg"
   xmlns="http://www.w3.org/2000/svg"
   xmlns:sodipodi="http://sodipodi.sourceforge.net/DTD/sodipodi-0.dtd"
   xmlns:inkscape="http://www.inkscape.org/namespaces/inkscape"
   width="54.854298mm"
   height="53.794201mm"
   viewBox="0 0 194.36562 190.60935"
   id="svg5287"
   version="1.1"
   inkscape:version="0.91 r13725"
   sodipodi:docname="lemon.svg">
  <defs
     id="defs5289" />
  <sodipodi:namedview
     id="base"
     pagecolor="#ffffff"
     bordercolor="#666666"
     borderopacity="1.0"
     inkscape:pageopacity="0.0"
     inkscape:pageshadow="2"
     inkscape:zoom="0.35"
     inkscape:cx="1503.0561"
     inkscape:cy="-192.83948"
     inkscape:document-units="px"
     inkscape:current-layer="layer1"
     showgrid="false"
     fit-margin-top="0"
     fit-margin-left="0"
     fit-margin-right="0"
     fit-margin-bottom="0"
     inkscape:window-width="1920"
     inkscape:window-height="1000"
     inkscape:window-x="1920"
     inkscape:window-y="27"
     inkscape:window-maximized="1" />
  <metadata
     id="metadata5292">
    <rdf:RDF>
      <cc:Work
         rdf:about="">
        <dc:format>image/svg+xml</dc:format>
        <dc:type
           rdf:resource="http://purl.org/dc/dcmitype/StillImage" />
        <dc:title></dc:title>
      </cc:Work>
    </rdf:RDF>
  </metadata>
  <g
     inkscape:label="Layer 1"
     inkscape:groupmode="layer"
     id="layer1"
     transform="translate(1560.9131,-148.91339)">
    <g
       id="g4876"
       transform="matrix(0.54742422,0,0,0.54742422,-1092.761,355.22875)">
      <path
         id="path4828"
         d="m -709.04492,-271.32031 a 160,100 33.410987 0 0 -80.00781,33.16015 160,100 33.410987 0 0 78.49414,171.576176 160,100 33.410987 0 0 188.62304,4.628906 160,100 33.410987 0 0 -78.49414,-171.578122 160,100 33.410987 0 0 -108.61523,-37.78711 z m -43.63281,146.82812 a 134.234,49.797781 24.53868 0 0 36.63671,28.312502 134.234,49.797781 24.53868 0 0 147.60938,49.146485 106.60383,44.996846 26.419082 0 1 -7.25391,4.414062 106.60383,44.996846 26.419082 0 1 -134.18945,-36.345703 106.60383,44.996846 26.419082 0 1 -42.80273,-45.527346 z"
         style="opacity:1;fill:#000000;fill-opacity:1;stroke:none;stroke-width:5.01499987;stroke-linecap:round;stroke-linejoin:round;stroke-miterlimit:4;stroke-dasharray:none;stroke-opacity:1"
         inkscape:connector-curvature="0" />
      <ellipse
         transform="matrix(0.55064082,-0.83474229,0.83474229,0.55064082,0,0)"
         ry="20"
         rx="30"
         cy="-471.81738"
         cx="-235.68208"
         id="path4830"
         style="opacity:1;fill:#000000;fill-opacity:1;stroke:none;stroke-width:5.01499987;stroke-linecap:round;stroke-linejoin:round;stroke-miterlimit:4;stroke-dasharray:none;stroke-opacity:1" />
      <ellipse
         transform="matrix(0.55064082,-0.83474229,0.83474229,0.55064082,0,0)"
         style="opacity:1;fill:#000000;fill-opacity:1;stroke:none;stroke-width:5.01499987;stroke-linecap:round;stroke-linejoin:round;stroke-miterlimit:4;stroke-dasharray:none;stroke-opacity:1"
         id="ellipse4832"
         cx="-235.68208"
         cy="-791.02557"
         rx="30"
         ry="20" />
      <path
         sodipodi:nodetypes="csc"
         inkscape:connector-curvature="0"
         id="path4834"
         d="m -850.20969,-263.67512 c 0,0 19.45522,17.06951 30.65746,20.35137 11.71214,3.43146 36.74134,-1.13378 36.74134,-1.13378"
         style="fill:none;fill-rule:evenodd;stroke:#000000;stroke-width:15.10515976;stroke-linecap:butt;stroke-linejoin:miter;stroke-miterlimit:4;stroke-dasharray:none;stroke-opacity:1" />
      <g
         transform="matrix(0.48372474,-0.53523463,0.53523463,0.48372474,-206.78348,-626.53311)"
         id="g4853">
        <path
           inkscape:connector-curvature="0"
           style="fill:#000000;fill-rule:evenodd;stroke:#000000;stroke-width:1px;stroke-linecap:butt;stroke-linejoin:miter;stroke-opacity:1"
           d="m -855.2168,-318.04883 c -22.10097,-0.0947 -44.53752,2.23142 -64.7832,10.41016 -15.45334,6.24276 -40,30 -40,30 0,0 25.38271,21.99296 40,30 24.97804,13.68242 51.56607,28.38047 80,30 27.44289,1.56308 53.60882,-12.31487 80,-20 20.24111,-5.89423 60,-20 60,-20 0,0 -30.7506,-30.77959 -50,-40 -27.71627,-13.27603 -59.30235,-18.55132 -90,-20 -5.03331,-0.23753 -10.11657,-0.3883 -15.2168,-0.41016 z m 43.34571,8.91016 c 0,0 -12.14766,2.19467 -17.88477,4.91211 -13.08265,6.19674 -16.11496,16.82686 -29.73047,22.19531 -12.08996,4.76693 -32.15625,3.38086 -32.15625,3.38086 0,0 20.12923,-3.17835 30.14453,-7.50195 12.47588,-5.38585 18.04058,-15.23245 30.73633,-20.13477 6.82376,-2.63492 18.89063,-2.85156 18.89063,-2.85156 z m 50.30078,13.13086 c 0,0 -7.34831,1.32902 -10.81836,2.97265 -7.91295,3.74805 -9.74718,10.17676 -17.98242,13.42383 -2.32326,0.91604 -5.13157,1.45478 -7.88477,1.76563 0.44512,0.0331 0.88017,0.0599 1.33008,0.0957 35.36738,2.81693 82.25976,15.76953 82.25976,15.76953 0,0 -52.83921,-8.9258 -82.61328,-10.92578 -37.08899,-2.49134 -63.08753,3.02479 -100.0957,-0.0254 -19.89131,-1.63944 -49.42578,-8.49414 -49.42578,-8.49414 0,0 32.24219,5.13897 49.60351,6.07031 36.52335,1.95929 57.11017,-4.42806 91.35157,-2.93945 4.08509,-0.77825 10.33206,-2.11385 14.25781,-3.8086 7.54595,-3.25759 10.91286,-9.2126 18.5918,-12.17773 4.1273,-1.59371 11.42578,-1.72656 11.42578,-1.72656 z m -95.75977,29.29492 c 7.99594,0.0109 20.28969,0.51076 28.99414,3.09766 15.68449,4.66133 19.17739,13.89097 34.24805,19.27148 6.60891,2.3595 20.60351,4.26563 20.60351,4.26563 0,-10e-6 -13.90103,-0.18871 -21.76171,-2.47657 -14.62496,-4.25659 -21.03652,-12.80405 -35.40821,-17.48047 -11.5372,-3.75411 -34.72265,-6.51367 -34.72265,-6.51367 0,0 3.24931,-0.17058 8.04687,-0.16406 z"
           id="path4836" />
      </g>
    </g>
  </g>
</svg>
