<?xml version="1.0" encoding="UTF-8" standalone="no"?>
<!-- Created with Inkscape (http://www.inkscape.org/) -->

<svg
   xmlns:dc="http://purl.org/dc/elements/1.1/"
   xmlns:cc="http://creativecommons.org/ns#"
   xmlns:rdf="http://www.w3.org/1999/02/22-rdf-syntax-ns#"
   xmlns:svg="http://www.w3.org/2000/svg"
   xmlns="http://www.w3.org/2000/svg"
   xmlns:sodipodi="http://sodipodi.sourceforge.net/DTD/sodipodi-0.dtd"
   xmlns:inkscape="http://www.inkscape.org/namespaces/inkscape"
   width="72"
   height="72"
   viewBox="0 0 72.000002 72.000002"
   id="svg9323"
   version="1.1"
   inkscape:version="0.91 r13725"
   sodipodi:docname="scales.svg">
  <defs
     id="defs9325" />
  <sodipodi:namedview
     id="base"
     pagecolor="#ffffff"
     bordercolor="#666666"
     borderopacity="1.0"
     inkscape:pageopacity="0.0"
     inkscape:pageshadow="2"
     inkscape:zoom="2.8"
     inkscape:cx="-1.8215364"
     inkscape:cy="-0.86594509"
     inkscape:document-units="px"
     inkscape:current-layer="layer1"
     showgrid="false"
     units="px"
     inkscape:window-width="1920"
     inkscape:window-height="1000"
     inkscape:window-x="0"
     inkscape:window-y="27"
     inkscape:window-maximized="1" />
  <metadata
     id="metadata9328">
    <rdf:RDF>
      <cc:Work
         rdf:about="">
        <dc:format>image/svg+xml</dc:format>
        <dc:type
           rdf:resource="http://purl.org/dc/dcmitype/StillImage" />
        <dc:title></dc:title>
      </cc:Work>
    </rdf:RDF>
  </metadata>
  <g
     inkscape:label="Layer 1"
     inkscape:groupmode="layer"
     id="layer1"
     transform="translate(0,-980.36219)">
    <g
       id="g11919"
       transform="matrix(0.50386397,0,0,0.50386397,93.776438,503.85843)">
      <path
         id="path4776"
         transform="translate(0,980.36219)"
         d="m -182.72266,-32.462891 a 69.928231,34.964115 0 0 0 62.64063,28.6484379 l 0,10.8398437 -30.85156,0 -33.6543,90.4960934 13.1543,0 0,4.113286 c 0,2.2789 1.83444,4.11328 4.11328,4.11328 l 106.068357,0 c 2.278838,0 4.113281,-1.83438 4.113281,-4.11328 l 0,-4.113286 13.154297,0 -32.90625,-90.4960934 -30.892575,0 0,-10.8496094 a 69.928231,34.964115 0 0 0 62.638669,-28.6386722 l -137.578129,0 z m 68.43555,46.128907 A 36.286288,36.286288 0 0 1 -78,49.953125 a 36.286288,36.286288 0 0 1 -36.28711,36.287109 36.286288,36.286288 0 0 1 -36.28516,-36.287109 36.286288,36.286288 0 0 1 36.28516,-36.287109 z"
         style="opacity:1;fill:#000000;fill-opacity:1;stroke:none;stroke-width:18.01499939;stroke-linecap:round;stroke-linejoin:round;stroke-miterlimit:4;stroke-dasharray:none;stroke-opacity:1"
         inkscape:connector-curvature="0" />
      <circle
         r="6.1701379"
         cy="1029.5808"
         cx="-114.28572"
         id="path4791"
         style="opacity:1;fill:none;fill-opacity:1;stroke:#000000;stroke-width:4.12576532;stroke-linecap:round;stroke-linejoin:round;stroke-miterlimit:4;stroke-dasharray:none;stroke-opacity:1" />
      <rect
         transform="matrix(0.83064248,0.55680613,-0.39730043,0.9176886,0,0)"
         ry="0.40916705"
         y="931.27789"
         x="315.52103"
         height="4.2280598"
         width="25.77717"
         id="rect4793"
         style="opacity:1;fill:#000000;fill-opacity:1;stroke:none;stroke-width:5.01499987;stroke-linecap:round;stroke-linejoin:round;stroke-miterlimit:4;stroke-dasharray:none;stroke-opacity:1" />
      <rect
         ry="0.40916735"
         y="996.6734"
         x="-115.67506"
         height="8.2268505"
         width="4.1134253"
         id="rect4795"
         style="opacity:1;fill:#000000;fill-opacity:1;stroke:none;stroke-width:5.01499987;stroke-linecap:round;stroke-linejoin:round;stroke-miterlimit:4;stroke-dasharray:none;stroke-opacity:1" />
      <rect
         style="opacity:1;fill:#000000;fill-opacity:1;stroke:none;stroke-width:5.01499987;stroke-linecap:round;stroke-linejoin:round;stroke-miterlimit:4;stroke-dasharray:none;stroke-opacity:1"
         id="rect4797"
         width="4.1134253"
         height="8.2268505"
         x="-115.67506"
         y="1056.6118"
         ry="0.40916735" />
      <rect
         transform="matrix(0,-1,1,0,0,0)"
         ry="0.40916735"
         y="-88.93779"
         x="-1032.8127"
         height="8.2268505"
         width="4.1134253"
         id="rect4799"
         style="opacity:1;fill:#000000;fill-opacity:1;stroke:none;stroke-width:5.01499987;stroke-linecap:round;stroke-linejoin:round;stroke-miterlimit:4;stroke-dasharray:none;stroke-opacity:1" />
      <rect
         style="opacity:1;fill:#000000;fill-opacity:1;stroke:none;stroke-width:5.01499987;stroke-linecap:round;stroke-linejoin:round;stroke-miterlimit:4;stroke-dasharray:none;stroke-opacity:1"
         id="rect4801"
         width="4.1134253"
         height="8.2268505"
         x="-1032.8127"
         y="-148.28867"
         ry="0.40916735"
         transform="matrix(0,-1,1,0,0,0)" />
      <circle
         r="2.0567126"
         cy="1010.4827"
         cx="-135.94833"
         id="path4803"
         style="opacity:1;fill:#000000;fill-opacity:1;stroke:none;stroke-width:5.01499987;stroke-linecap:round;stroke-linejoin:round;stroke-miterlimit:4;stroke-dasharray:none;stroke-opacity:1" />
      <circle
         style="opacity:1;fill:#000000;fill-opacity:1;stroke:none;stroke-width:5.01499987;stroke-linecap:round;stroke-linejoin:round;stroke-miterlimit:4;stroke-dasharray:none;stroke-opacity:1"
         id="circle4805"
         cx="-91.582092"
         cy="1010.4827"
         r="2.0567126" />
      <circle
         transform="scale(1,-1)"
         style="opacity:1;fill:#000000;fill-opacity:1;stroke:none;stroke-width:5.01499987;stroke-linecap:round;stroke-linejoin:round;stroke-miterlimit:4;stroke-dasharray:none;stroke-opacity:1"
         id="circle4809"
         cx="-135.94833"
         cy="-1053.6737"
         r="2.0567126" />
      <circle
         transform="scale(1,-1)"
         style="opacity:1;fill:#000000;fill-opacity:1;stroke:none;stroke-width:5.01499987;stroke-linecap:round;stroke-linejoin:round;stroke-miterlimit:4;stroke-dasharray:none;stroke-opacity:1"
         id="circle4811"
         cx="-91.582092"
         cy="-1053.6737"
         r="2.0567126" />
    </g>
  </g>
</svg>
