<?xml version="1.0" encoding="UTF-8" standalone="no"?>
<!-- Created with Inkscape (http://www.inkscape.org/) -->

<svg
   xmlns:dc="http://purl.org/dc/elements/1.1/"
   xmlns:cc="http://creativecommons.org/ns#"
   xmlns:rdf="http://www.w3.org/1999/02/22-rdf-syntax-ns#"
   xmlns:svg="http://www.w3.org/2000/svg"
   xmlns="http://www.w3.org/2000/svg"
   xmlns:sodipodi="http://sodipodi.sourceforge.net/DTD/sodipodi-0.dtd"
   xmlns:inkscape="http://www.inkscape.org/namespaces/inkscape"
   width="72"
   height="72"
   viewBox="0 0 72.000002 72.000002"
   id="svg9323"
   version="1.1"
   inkscape:version="0.91 r13725"
   sodipodi:docname="timer.svg">
  <defs
     id="defs9325" />
  <sodipodi:namedview
     id="base"
     pagecolor="#ffffff"
     bordercolor="#666666"
     borderopacity="1.0"
     inkscape:pageopacity="0.0"
     inkscape:pageshadow="2"
     inkscape:zoom="2.8"
     inkscape:cx="-1.8215364"
     inkscape:cy="-27.07408"
     inkscape:document-units="px"
     inkscape:current-layer="layer1"
     showgrid="false"
     units="px"
     inkscape:window-width="1920"
     inkscape:window-height="1000"
     inkscape:window-x="0"
     inkscape:window-y="27"
     inkscape:window-maximized="1" />
  <metadata
     id="metadata9328">
    <rdf:RDF>
      <cc:Work
         rdf:about="">
        <dc:format>image/svg+xml</dc:format>
        <dc:type
           rdf:resource="http://purl.org/dc/dcmitype/StillImage" />
        <dc:title></dc:title>
      </cc:Work>
    </rdf:RDF>
  </metadata>
  <g
     inkscape:label="Layer 1"
     inkscape:groupmode="layer"
     id="layer1"
     transform="translate(0,-980.36219)">
    <g
       id="g10823"
       transform="matrix(0.47609258,0,0,0.47609258,85.022733,500.42305)">
      <path
         transform="translate(0,980.36219)"
         id="path4184"
         d="m -118.52148,29.347656 0,13.253906 12.64453,0 0,6.464844 c -32.97704,2.644263 -59.04883,30.345806 -59.04883,63.986324 0,35.3798 28.83106,64.21094 64.21094,64.21094 35.379867,0 64.210934,-28.83114 64.210934,-64.21094 0,-16.551069 -6.310521,-31.668777 -16.648438,-43.072261 l 8.320313,-7.0625 -7.103516,-8.191407 -9.216797,7.822266 c -9.64277,-7.573171 -21.489309,-12.447147 -34.40039,-13.482422 l 0,-6.464844 12.646484,0 0,-13.253906 -35.61523,0 z m 17.80664,33.494141 c 27.813705,0 50.210934,22.397137 50.210934,50.210933 0,27.8137 -22.397229,50.21094 -50.210934,50.21094 -27.81372,0 -50.21094,-22.39724 -50.21094,-50.21094 0,-27.813796 22.39722,-50.210933 50.21094,-50.210933 z"
         style="color:#000000;font-style:normal;font-variant:normal;font-weight:normal;font-stretch:normal;font-size:medium;line-height:normal;font-family:sans-serif;text-indent:0;text-align:start;text-decoration:none;text-decoration-line:none;text-decoration-style:solid;text-decoration-color:#000000;letter-spacing:normal;word-spacing:normal;text-transform:none;direction:ltr;block-progression:tb;writing-mode:lr-tb;baseline-shift:baseline;text-anchor:start;white-space:normal;clip-rule:nonzero;display:inline;overflow:visible;visibility:visible;opacity:1;isolation:auto;mix-blend-mode:normal;color-interpolation:sRGB;color-interpolation-filters:linearRGB;solid-color:#000000;solid-opacity:1;fill:#000000;fill-opacity:1;fill-rule:nonzero;stroke:none;stroke-width:14;stroke-linecap:round;stroke-linejoin:round;stroke-miterlimit:4;stroke-dasharray:none;stroke-dashoffset:0;stroke-opacity:1;color-rendering:auto;image-rendering:auto;shape-rendering:auto;text-rendering:auto;enable-background:accumulate"
         inkscape:connector-curvature="0" />
      <path
         transform="translate(0,980.36219)"
         id="path4186"
         d="m -105.44531,76.058594 0,29.916016 a 10.85158,10.85158 0 0 0 -6.1211,9.75586 10.85158,10.85158 0 0 0 10.85157,10.85156 10.85158,10.85158 0 0 0 10.851559,-10.85156 10.85158,10.85158 0 0 0 -6.119141,-9.75 l 0,-29.921876 -9.462888,0 z"
         style="opacity:1;fill:#000000;fill-opacity:1;stroke:none;stroke-width:5;stroke-linecap:round;stroke-linejoin:round;stroke-miterlimit:4;stroke-dasharray:none;stroke-opacity:1"
         inkscape:connector-curvature="0" />
    </g>
  </g>
</svg>
